# xmcd CD database file
#
# Track frame offsets:
#	150
#	10702
#	19993
#	31078
#	41362
#	52547
#	62382
#	72346
#	81616
#	90386
#	100238
#	111901
#	123870
#	133860
#	144459
#	153211
#	165433
#	176934
#	186958
#	197356
#	205869
#	216615
#	227765
#	238298
#	247214
#	259261
#	270854
#	282499
#
# Disc length: 3930 seconds
#
# Revision: 1
# Processed by: cddbd v1.5.2PL0 Copyright (c) Steve Scherf et al.
# Submitted via: CDex 1.51
#
DISCID=8c0f581c
DTITLE=Jimmy C. Newman - Crazy Old Heart
DYEAR=1900
DGENRE=Country
TTITLE0=I'd Just Be Fool Enough
TTITLE1=Jambalaya
TTITLE2=Outside Your Door
TTITLE3=To The Moon In A Rocket
TTITLE4=Making Believe
TTITLE5=Whatcha Gonna Do
TTITLE6=You're Making A Fool Out Of Me
TTITLE7=Jole Blon
TTITLE8=So Soon
TTITLE9=Crying Over You
TTITLE10=Lonely Girl
TTITLE11=Please Accept My Love
TTITLE12=I Miss You Already
TTITLE13=End Of The Line
TTITLE14=Grin And Bear It
TTITLE15=Ballad Of Baby Doe
TTITLE16=A Lovely Work Of Art
TTITLE17=What About Me
TTITLE18=Walkin' Down The Road
TTITLE19=Angel's Cryin'
TTITLE20=Wanting You With Me Tonight
TTITLE21=Now That You're Gone
TTITLE22=Just One More Night With You
TTITLE23=Everybody's Dyin' For Love
TTITLE24=Crazy Old Heart
TTITLE25=Of All The Things You Left
TTITLE26=Finally
TTITLE27=Give Me Heaven
EXTD=
EXTT0=
EXTT1=
EXTT2=
EXTT3=
EXTT4=
EXTT5=
EXTT6=
EXTT7=
EXTT8=
EXTT9=
EXTT10=
EXTT11=
EXTT12=
EXTT13=
EXTT14=
EXTT15=
EXTT16=
EXTT17=
EXTT18=
EXTT19=
EXTT20=
EXTT21=
EXTT22=
EXTT23=
EXTT24=
EXTT25=
EXTT26=
EXTT27=
PLAYORDER=
